<?xml version="1.0" encoding="utf-8"?>
<!-- Generator: Adobe Illustrator 19.2.1, SVG Export Plug-In . SVG Version: 6.00 Build 0)  -->
<svg version="1.1" id="layer" xmlns="http://www.w3.org/2000/svg" xmlns:xlink="http://www.w3.org/1999/xlink" x="0px" y="0px"
	 viewBox="0 0 652 652" style="enable-background:new 0 0 400 400;" xml:space="preserve">
<style type="text/css">
	.st0{fill:#FFFFFF;}
</style>
<polygon points="26,295.3 26,459.6 626,356.9 626,192 "/>
<g>
	<path class="st0" d="M130.7,357.8c6.1-3.5,13.1-12.1,13.1-23c0-10.8-7-16.4-13.8-17.9c-6.8-1.5-15.5-0.7-23.7,0.7L59,325.8v22
		l8.8-1.5v49.2l-8.8,1.5v22l54.8-9.4c8.8-1.5,18.3-5.2,24.3-10.3c6.1-5.1,10.4-11.9,10.4-22.8C148.5,365.8,141.5,358.9,130.7,357.8
		L130.7,357.8z M98.2,341.1l6.1-1.1c3.4-0.6,4.7-0.8,6.8,0.2c2,1,2.7,2.5,2.7,4.9c0,2.3-0.7,4-2.7,5.7c-2,1.7-3.4,2.1-6.8,2.6
		l-6.1,1V341.1L98.2,341.1z M115.1,385.1c-2,1.7-3.4,2.3-6.8,2.9l-10.1,1.7v-14.9l10.1-1.7c3.4-0.6,4.7-0.6,6.8,0.4
		c2,1,2.7,2.9,2.7,5.3C117.8,381.2,117.1,383.4,115.1,385.1L115.1,385.1z"/>
	<path class="st0" d="M324.6,279.9l-3,0.5V361l-28-75.8l-33.8,5.9l-28.2,86l-13.7-20.8c4.1-3.1,15.5-11.9,15.5-30.8
		c0-10.1-4.7-17.4-11.5-21c-6.8-3.6-15.6-4.1-27.1-2.1l-40.6,7v93.3l30.6-5.3v-31.1l3.9-0.7l14.9,28.5l23.7-4.1l11.5-2l20.3-3.5
		l3.5-13.7l26.6-4.6l3.7,12.5l28.7-5v0l30.6-5.3v-93.3L324.6,279.9L324.6,279.9L324.6,279.9z M199.2,339.2c-1.2,1.2-3.4,2.2-6.8,2.8
		l-7.7,1.3v-16.2l7.7-1.3c3.4-0.6,5.4-0.3,6.8,0.6c1.4,0.7,3.4,1.7,3.4,5.8C202.6,336.1,200.7,337.8,199.2,339.2L199.2,339.2z
		 M269.2,346.3l6.9-26.2l6.9,23.8L269.2,346.3L269.2,346.3z"/>
	<path class="st0" d="M422.1,298.1c0,6.8,0.7,16.8,0.7,16.8l-27.1-47.4l-33.1,5.7v93.3l29.8-5.1v-35.2c0-6.8-0.7-16.8-0.7-16.8
		l28.4,47.1l31.8-5.5v-93.3l-29.7,5.1V298.1L422.1,298.1z"/>
	<polygon class="st0" points="564.3,238.3 550.4,272.2 536.6,243.1 502.8,248.9 535.1,300.1 535.1,311.6 492.7,319 492.7,250.7 
		462.2,256 462.2,349.3 535.1,336.6 560.8,332.2 565.7,331.3 565.7,294.8 598.1,232.4 	"/>
</g>
</svg>
